<svg width="36" height="36" viewBox="0 0 36 36" fill="none" xmlns="http://www.w3.org/2000/svg">
<g clip-path="url(#clip0_1_14)">
<path d="M20.4515 14.3438C19.5234 14.3438 18.8042 15.0629 18.8042 15.9509C18.8042 16.8388 19.5234 17.558 20.4515 17.558C21.2993 17.558 22.0185 16.8388 22.0185 15.9509C22.0185 15.0629 21.2993 14.3438 20.4515 14.3438ZM9.20149 14.3438C8.27336 14.3438 7.55417 15.0629 7.55417 15.9509C7.55417 16.8388 8.27336 17.558 9.20149 17.558C10.0493 17.558 10.7685 16.8388 10.7685 15.9509C10.7685 15.0629 10.0493 14.3438 9.20149 14.3438Z" fill="#838C98" fill-opacity="0.85"/>
<path d="M33.3477 11.287C31.4888 8.72824 28.8083 6.88456 25.7539 6.06383V6.06785C25.0669 5.30446 24.2914 4.60133 23.4236 3.97455C16.8463 -0.806705 7.6133 0.651778 2.81196 7.22901C-1.05723 12.5728 -0.8925 19.7607 3.05304 24.8674L3.08518 30.1951C3.08518 30.3237 3.10527 30.4522 3.14545 30.5728C3.19598 30.7338 3.27777 30.8832 3.38612 31.0126C3.49448 31.142 3.62728 31.2487 3.77692 31.3267C3.92656 31.4047 4.09011 31.4524 4.25822 31.4671C4.42632 31.4818 4.59568 31.4633 4.75661 31.4125L9.84321 29.8094C11.1892 30.2875 12.5794 30.5607 13.9615 30.637L13.9414 30.6531C17.5213 33.2607 22.2142 34.0442 26.5173 32.6219L31.624 34.2853C31.7526 34.3254 31.8852 34.3495 32.0218 34.3495C32.7329 34.3495 33.3075 33.775 33.3075 33.0638V27.6799C36.8472 22.8745 36.9396 16.233 33.3477 11.287ZM10.4057 26.9567L9.92357 26.7558L5.94589 28.0013L5.90571 23.8228L5.58429 23.4612C2.18518 19.3147 1.96018 13.3402 5.14232 8.95669C9.01554 3.64508 16.4405 2.47187 21.7361 6.3049C27.0477 10.1661 28.2249 17.579 24.3879 22.8585C21.1696 27.2741 15.4079 28.9053 10.4057 26.9567ZM30.6959 26.2737L30.3745 26.6754L30.4146 30.854L26.4771 29.5281L25.995 29.729C23.745 30.5647 21.3463 30.633 19.1245 30.0103L19.1164 30.0062C22.1701 29.0698 24.8376 27.1679 26.7182 24.5862C29.7879 20.3553 30.2861 15.0397 28.5021 10.5076L28.5263 10.5237C29.4504 11.1866 30.2981 12.0143 31.0173 13.0147C33.9343 17.0165 33.7696 22.4647 30.6959 26.2737Z" fill="#838C98" fill-opacity="0.85"/>
<path d="M14.8265 14.3438C13.8984 14.3438 13.1792 15.0629 13.1792 15.9509C13.1792 16.8388 13.8984 17.558 14.8265 17.558C15.6743 17.558 16.3935 16.8388 16.3935 15.9509C16.3935 15.0629 15.6743 14.3438 14.8265 14.3438Z" fill="#838C98" fill-opacity="0.85"/>
</g>
<defs>
<clipPath id="clip0_1_14">
<rect width="36" height="36" fill="white"/>
</clipPath>
</defs>
</svg>
