<svg width="36" height="36" viewBox="0 0 36 36" fill="none" xmlns="http://www.w3.org/2000/svg">
<path d="M34.5143 8.81589C33.9758 7.5689 33.1992 6.43888 32.2281 5.48911C31.2564 4.5365 30.1106 3.77947 28.8531 3.2592C27.5493 2.71756 26.1508 2.44032 24.7389 2.44357C22.7581 2.44357 20.8255 2.98598 19.146 4.01054C18.7442 4.25562 18.3625 4.52482 18.0009 4.81812C17.6393 4.52482 17.2576 4.25562 16.8558 4.01054C15.1764 2.98598 13.2438 2.44357 11.263 2.44357C9.83663 2.44357 8.45448 2.71679 7.14868 3.2592C5.88707 3.78152 4.75002 4.53286 3.77368 5.48911C2.80134 6.43781 2.02462 7.56809 1.48752 8.81589C0.929036 10.1137 0.643768 11.4918 0.643768 12.9101C0.643768 14.248 0.916983 15.6422 1.45939 17.0605C1.91341 18.2458 2.5643 19.4753 3.396 20.7168C4.71386 22.6815 6.52591 24.7306 8.77591 26.8079C12.5045 30.2512 16.1969 32.6297 16.3536 32.7262L17.3058 33.3369C17.7277 33.6061 18.2701 33.6061 18.692 33.3369L19.6442 32.7262C19.8009 32.6257 23.4893 30.2512 27.2219 26.8079C29.4719 24.7306 31.284 22.6815 32.6018 20.7168C33.4335 19.4753 34.0884 18.2458 34.5384 17.0605C35.0808 15.6422 35.354 14.248 35.354 12.9101C35.3581 11.4918 35.0728 10.1137 34.5143 8.81589V8.81589ZM18.0009 30.1588C18.0009 30.1588 3.69734 20.994 3.69734 12.9101C3.69734 8.81589 7.08439 5.49714 11.263 5.49714C14.2 5.49714 16.7473 7.13643 18.0009 9.53107C19.2545 7.13643 21.8018 5.49714 24.7389 5.49714C28.9174 5.49714 32.3045 8.81589 32.3045 12.9101C32.3045 20.994 18.0009 30.1588 18.0009 30.1588Z" fill="#838C98"/>
</svg>
