<svg width="12" height="17" viewBox="0 0 12 17" fill="none" xmlns="http://www.w3.org/2000/svg">
<path d="M11.2495 6.75052H0.749825C0.339623 6.75052 0 6.4109 0 6.0007C0 5.80154 0.081761 5.61426 0.222921 5.47379L5.4731 0.22362C5.61356 0.0824598 5.80084 0 6 0C6.19916 0 6.38644 0.081761 6.5269 0.222921L11.7778 5.4731C11.9182 5.61356 12 5.80084 12 6C12 6.4102 11.6604 6.75052 11.2495 6.75052ZM11.7778 11.028L6.5269 16.2781C6.38644 16.4186 6.19916 16.5003 6 16.5003C5.80084 16.5003 5.61356 16.4186 5.4731 16.2781L0.222921 11.028C0.081761 10.8875 0 10.6995 0 10.5003C0 10.0901 0.339623 9.75052 0.749825 9.75052H11.2488C11.6597 9.75052 11.9993 10.0901 11.9993 10.5003C12 10.6995 11.9182 10.8868 11.7778 11.028Z" fill="black"/>
</svg>
