<svg width="36" height="36" viewBox="0 0 36 36" fill="none" xmlns="http://www.w3.org/2000/svg">
<path d="M35.2851 16.9658C31.4761 8.94218 25.7185 4.90424 18.0002 4.90424C10.2779 4.90424 4.52434 8.94218 0.715411 16.9699C0.562633 17.2934 0.483398 17.6467 0.483398 18.0045C0.483398 18.3622 0.562633 18.7156 0.715411 19.0391C4.52434 27.0627 10.2819 31.1007 18.0002 31.1007C25.7226 31.1007 31.4761 27.0627 35.2851 19.035C35.5944 18.3841 35.5944 17.6288 35.2851 16.9658V16.9658ZM18.0002 28.2078C11.5194 28.2078 6.77434 24.9212 3.42746 18.0025C6.77434 11.0837 11.5194 7.79709 18.0002 7.79709C24.481 7.79709 29.2261 11.0837 32.573 18.0025C29.2301 24.9212 24.4851 28.2078 18.0002 28.2078ZM17.8395 10.931C13.9342 10.931 10.7681 14.0971 10.7681 18.0025C10.7681 21.9078 13.9342 25.0739 17.8395 25.0739C21.7449 25.0739 24.9109 21.9078 24.9109 18.0025C24.9109 14.0971 21.7449 10.931 17.8395 10.931ZM17.8395 22.5025C15.3525 22.5025 13.3395 20.4895 13.3395 18.0025C13.3395 15.5154 15.3525 13.5025 17.8395 13.5025C20.3266 13.5025 22.3395 15.5154 22.3395 18.0025C22.3395 20.4895 20.3266 22.5025 17.8395 22.5025Z" fill="#838C98" fill-opacity="0.85"/>
</svg>
